 <svg width="345px" height="72px" viewBox="0 0 345 72" version="1.1" xmlns="http://www.w3.org/2000/svg"
        xmlns:xlink="http://www.w3.org/1999/xlink">
  <rect id="Rectangle" fill="#FFFFFF" x="0" y="2.91780822" width="344.85254" height="68.0821918"></rect>
  <g id="Group" transform="translate(42.265587, -0.000000)">
    <path
      d="M56.3792274,18.4434297 L56.379,18.4454297 L56.6877705,18.4434297 C66.954083,18.4434297 75.2977022,26.5223013 75.4778723,36.5553982 L75.4808463,36.8868595 C75.4808463,47.0728844 67.0668996,55.3302892 56.6877705,55.3302892 C56.5846621,55.3302892 56.4817477,55.3294743 56.3790335,55.3278507 L56.3792274,55.3302892 L18.7930758,55.3302892 L18.4553308,55.3273705 C8.23202884,55.1505525 0,46.9621668 0,36.8868595 C0,26.7008345 8.41394664,18.4434297 18.7930758,18.4434297 L18.7930758,18.4434297 L56.3792274,18.4434297 Z"
      id="Combined-Shape" stroke="#FFFFFF" stroke-width="1.49800449" fill="#2D82FF"></path>
    <ellipse stroke="#FFFFFF" stroke-width="1.49843458" fill="#3B83FF" cx="37.5861516" cy="18.4434297"
      rx="18.7930758" ry="18.4434297"></ellipse>
    <ellipse fill="#2D82FF" cx="53.5714858" cy="36.3105023" rx="17.9992787" ry="17.8670726">
    </ellipse>
  </g>
  <path
    d="M150.320981,44.2686623 C150.737407,44.2686623 151.231912,44.2231158 151.804498,44.1320226 C152.377083,44.0409295 152.975695,43.8912765 153.600333,43.6830637 C154.224972,43.4748508 154.843104,43.2015715 155.454729,42.8632256 C156.066354,42.5248797 156.606406,42.1214673 157.074885,41.6529883 L157.074885,41.6529883 L153.951693,38.2955561 C153.50924,38.8681414 152.975695,39.3040871 152.351056,39.6033931 C151.726418,39.902699 151.049726,40.052352 150.320981,40.052352 C149.462103,40.052352 148.694318,39.8961924 148.017626,39.5838731 C147.340934,39.2715538 146.761842,38.8551281 146.28035,38.334596 C145.798858,37.8140638 145.434485,37.2154519 145.187233,36.5387601 C144.93998,35.8620683 144.816354,35.1593499 144.816354,34.430605 C144.816354,33.70186 144.93998,32.9991416 145.187233,32.3224498 C145.434485,31.645758 145.798858,31.0471461 146.28035,30.5266139 C146.761842,30.0060818 147.340934,29.5896561 148.017626,29.2773368 C148.694318,28.9650175 149.462103,28.8088579 150.320981,28.8088579 C150.945619,28.8088579 151.557245,28.9780308 152.155857,29.3163767 C152.754469,29.6547226 153.327054,30.1101882 153.873613,30.6827736 L153.873613,30.6827736 L157.113925,27.442461 C156.202994,26.45345 155.14241,25.7312116 153.932173,25.275746 C152.721935,24.8202804 151.518205,24.5925476 150.320981,24.5925476 C148.915544,24.5925476 147.588187,24.826787 146.33891,25.295266 C145.089633,25.7637449 144.009529,26.4274234 143.098598,27.2863014 C142.187666,28.1451794 141.465428,29.179737 140.931883,30.3899742 C140.398337,31.6002115 140.131564,32.9470884 140.131564,34.430605 C140.131564,35.9141215 140.398337,37.2609984 140.931883,38.4712357 C141.465428,39.6814729 142.187666,40.7160305 143.098598,41.5749085 C144.009529,42.4337866 145.089633,43.097465 146.33891,43.5659439 C147.588187,44.0344229 148.915544,44.2686623 150.320981,44.2686623 Z M164.648628,43.8001834 L164.648628,14.2860113 L159.963839,14.2860113 L159.963839,43.8001834 L164.648628,43.8001834 Z M179.288594,44.2686623 C180.694031,44.2686623 182.021388,44.0344229 183.270665,43.5659439 C184.519942,43.097465 185.600046,42.4337866 186.510978,41.5749085 C187.421909,40.7160305 188.144147,39.6814729 188.677693,38.4712357 C189.211238,37.2609984 189.478011,35.9141215 189.478011,34.430605 C189.478011,32.9470884 189.211238,31.6002115 188.677693,30.3899742 C188.144147,29.179737 187.421909,28.1451794 186.510978,27.2863014 C185.600046,26.4274234 184.519942,25.7637449 183.270665,25.295266 C182.021388,24.826787 180.694031,24.5925476 179.288594,24.5925476 C177.883158,24.5925476 176.555801,24.826787 175.306523,25.295266 C174.057246,25.7637449 172.977142,26.4274234 172.066211,27.2863014 C171.15528,28.1451794 170.433041,29.179737 169.899496,30.3899742 C169.36595,31.6002115 169.099178,32.9470884 169.099178,34.430605 C169.099178,35.9141215 169.36595,37.2609984 169.899496,38.4712357 C170.433041,39.6814729 171.15528,40.7160305 172.066211,41.5749085 C172.977142,42.4337866 174.057246,43.097465 175.306523,43.5659439 C176.555801,44.0344229 177.883158,44.2686623 179.288594,44.2686623 Z M179.288594,40.052352 C178.429716,40.052352 177.661931,39.8961924 176.98524,39.5838731 C176.308548,39.2715538 175.729456,38.8551281 175.247964,38.334596 C174.766471,37.8140638 174.402099,37.2154519 174.154846,36.5387601 C173.907593,35.8620683 173.783967,35.1593499 173.783967,34.430605 C173.783967,33.70186 173.907593,32.9991416 174.154846,32.3224498 C174.402099,31.645758 174.766471,31.0471461 175.247964,30.5266139 C175.729456,30.0060818 176.308548,29.5896561 176.98524,29.2773368 C177.661931,28.9650175 178.429716,28.8088579 179.288594,28.8088579 C180.147472,28.8088579 180.915257,28.9650175 181.591949,29.2773368 C182.268641,29.5896561 182.847733,30.0060818 183.329225,30.5266139 C183.810717,31.0471461 184.17509,31.645758 184.422343,32.3224498 C184.669595,32.9991416 184.793222,33.70186 184.793222,34.430605 C184.793222,35.1593499 184.669595,35.8620683 184.422343,36.5387601 C184.17509,37.2154519 183.810717,37.8140638 183.329225,38.334596 C182.847733,38.8551281 182.268641,39.2715538 181.591949,39.5838731 C180.915257,39.8961924 180.147472,40.052352 179.288594,40.052352 Z M200.682465,44.2686623 C202.244062,44.2686623 203.480325,43.9238098 204.391257,43.2341047 C205.302188,42.5443996 205.97888,41.7310682 206.421332,40.7941103 L206.421332,40.7941103 L206.499412,40.7941103 L206.499412,43.8001834 L210.949962,43.8001834 L210.949962,25.0610265 L206.265172,25.0610265 L206.265172,35.289483 C206.265172,35.9141215 206.187092,36.5127335 206.030933,37.0853188 C205.874773,37.6579042 205.621014,38.165423 205.269655,38.6078753 C204.918295,39.0503277 204.475843,39.4016869 203.942298,39.6619529 C203.408752,39.922219 202.75158,40.052352 201.970782,40.052352 C201.137931,40.052352 200.493772,39.8636591 200.038307,39.4862733 C199.582841,39.1088875 199.244495,38.6404086 199.023269,38.0808366 C198.802043,37.5212645 198.665403,36.9226526 198.61335,36.2850007 C198.561297,35.6473488 198.53527,35.0682568 198.53527,34.5477247 L198.53527,34.5477247 L198.53527,25.0610265 L193.850481,25.0610265 L193.850481,36.8901193 C193.850481,37.8531037 193.967601,38.7770483 194.20184,39.6619529 C194.436079,40.5468576 194.826479,41.3341624 195.373037,42.0238675 C195.919596,42.7135726 196.628821,43.2601313 197.500712,43.6635437 C198.372604,44.0669561 199.433188,44.2686623 200.682465,44.2686623 Z M224.57489,44.2686623 C225.902247,44.2686623 227.138511,44.0083963 228.283682,43.4878641 C229.428852,42.967332 230.339784,42.1344806 231.016475,40.9893099 L231.016475,40.9893099 L231.094555,40.9893099 L231.094555,43.8001834 L235.545105,43.8001834 L235.545105,14.2860113 L230.860316,14.2860113 L230.860316,27.442461 L230.743196,27.442461 C230.508957,27.1301417 230.209651,26.8113158 229.845278,26.4859832 C229.480906,26.1606506 229.038453,25.854838 228.517921,25.5685453 C227.997389,25.2822527 227.398777,25.0480132 226.722085,24.8658269 C226.045393,24.6836407 225.264595,24.5925476 224.379691,24.5925476 C223.052334,24.5925476 221.829083,24.846307 220.709939,25.3538258 C219.590795,25.8613447 218.634317,26.5575564 217.840506,27.442461 C217.046694,28.3273656 216.428562,29.3684299 215.98611,30.5656538 C215.543658,31.7628778 215.322431,33.0511948 215.322431,34.430605 C215.322431,35.8100151 215.530644,37.0983322 215.94707,38.2955561 C216.363496,39.49278 216.975121,40.5338443 217.781946,41.4187489 C218.588771,42.3036535 219.558262,42.9998652 220.690419,43.5073841 C221.822577,44.0149029 223.1174,44.2686623 224.57489,44.2686623 Z M225.511848,40.052352 C224.65297,40.052352 223.885185,39.8961924 223.208493,39.5838731 C222.531802,39.2715538 221.95271,38.8551281 221.471217,38.334596 C220.989725,37.8140638 220.625353,37.2154519 220.3781,36.5387601 C220.130847,35.8620683 220.007221,35.1593499 220.007221,34.430605 C220.007221,33.70186 220.130847,32.9991416 220.3781,32.3224498 C220.625353,31.645758 220.989725,31.0471461 221.471217,30.5266139 C221.95271,30.0060818 222.531802,29.5896561 223.208493,29.2773368 C223.885185,28.9650175 224.65297,28.8088579 225.511848,28.8088579 C226.370726,28.8088579 227.138511,28.9650175 227.815203,29.2773368 C228.491895,29.5896561 229.070987,30.0060818 229.552479,30.5266139 C230.033971,31.0471461 230.398343,31.645758 230.645596,32.3224498 C230.892849,32.9991416 231.016475,33.70186 231.016475,34.430605 C231.016475,35.1593499 230.892849,35.8620683 230.645596,36.5387601 C230.398343,37.2154519 230.033971,37.8140638 229.552479,38.334596 C229.070987,38.8551281 228.491895,39.2715538 227.815203,39.5838731 C227.138511,39.8961924 226.370726,40.052352 225.511848,40.052352 Z M250.106992,44.2686623 C250.523417,44.2686623 251.017923,44.2231158 251.590508,44.1320226 C252.163093,44.0409295 252.761705,43.8912765 253.386344,43.6830637 C254.010983,43.4748508 254.629114,43.2015715 255.24074,42.8632256 C255.852365,42.5248797 256.392417,42.1214673 256.860896,41.6529883 L256.860896,41.6529883 L253.737703,38.2955561 C253.295251,38.8681414 252.761705,39.3040871 252.137067,39.6033931 C251.512428,39.902699 250.835736,40.052352 250.106992,40.052352 C249.248113,40.052352 248.480329,39.8961924 247.803637,39.5838731 C247.126945,39.2715538 246.547853,38.8551281 246.066361,38.334596 C245.584869,37.8140638 245.220496,37.2154519 244.973243,36.5387601 C244.725991,35.8620683 244.602364,35.1593499 244.602364,34.430605 C244.602364,33.70186 244.725991,32.9991416 244.973243,32.3224498 C245.220496,31.645758 245.584869,31.0471461 246.066361,30.5266139 C246.547853,30.0060818 247.126945,29.5896561 247.803637,29.2773368 C248.480329,28.9650175 249.248113,28.8088579 250.106992,28.8088579 C250.73163,28.8088579 251.343255,28.9780308 251.941867,29.3163767 C252.540479,29.6547226 253.113065,30.1101882 253.659623,30.6827736 L253.659623,30.6827736 L256.899936,27.442461 C255.989005,26.45345 254.92842,25.7312116 253.718183,25.275746 C252.507946,24.8202804 251.304215,24.5925476 250.106992,24.5925476 C248.701555,24.5925476 247.374198,24.826787 246.124921,25.295266 C244.875644,25.7637449 243.795539,26.4274234 242.884608,27.2863014 C241.973677,28.1451794 241.251439,29.179737 240.717893,30.3899742 C240.184348,31.6002115 239.917575,32.9470884 239.917575,34.430605 C239.917575,35.9141215 240.184348,37.2609984 240.717893,38.4712357 C241.251439,39.6814729 241.973677,40.7160305 242.884608,41.5749085 C243.795539,42.4337866 244.875644,43.097465 246.124921,43.5659439 C247.374198,44.0344229 248.701555,44.2686623 250.106992,44.2686623 Z M265.254477,44.2686623 C266.503754,44.2686623 267.648925,44.0279162 268.689989,43.546424 C269.731053,43.0649318 270.589931,42.2906402 271.266623,41.2235493 L271.266623,41.2235493 L271.383743,41.2235493 L271.383743,43.8001834 L275.600053,43.8001834 L275.600053,33.0251682 C275.600053,32.5827159 275.58704,32.0686904 275.561013,31.4830917 C275.534986,30.8974931 275.4504,30.2923745 275.307254,29.6677359 C275.164107,29.0430973 274.929868,28.4249654 274.604535,27.8133402 C274.279203,27.2017149 273.81723,26.6616628 273.218618,26.1931839 C272.620006,25.724705 271.865235,25.3408125 270.954304,25.0415065 C270.043372,24.7422006 268.924228,24.5925476 267.596871,24.5925476 C266.113355,24.5925476 264.675385,24.826787 263.282961,25.295266 C261.890538,25.7637449 260.673794,26.5315298 259.63273,27.5986207 L259.63273,27.5986207 L262.092244,30.058135 C262.716883,29.459523 263.458641,28.9845375 264.317519,28.6331783 C265.176397,28.2818191 266.100341,28.1061395 267.089352,28.1061395 C268.33863,28.1061395 269.366681,28.3989388 270.173505,28.9845375 C270.98033,29.5701361 271.383743,30.4485341 271.383743,31.6197314 L271.383743,31.6197314 L271.383743,32.1272502 L270.212545,32.1272502 C269.431747,32.1272502 268.598896,32.1467702 267.713991,32.1858101 C266.829086,32.22485 265.950688,32.3159431 265.078797,32.4590895 C264.206906,32.6022358 263.367548,32.8169553 262.560723,33.103248 C261.753898,33.3895407 261.044673,33.7734331 260.433048,34.2549254 C259.821423,34.7364176 259.333424,35.3350295 258.969051,36.0507612 C258.604679,36.7664929 258.422492,37.6318776 258.422492,38.6469153 C258.422492,39.5838731 258.617692,40.4037112 259.008091,41.1064296 C259.39849,41.809148 259.912516,42.3947466 260.550167,42.8632256 C261.187819,43.3317045 261.916564,43.6830637 262.736402,43.9173031 C263.556241,44.1515426 264.395599,44.2686623 265.254477,44.2686623 Z M266.386634,40.7550704 C265.996235,40.7550704 265.605836,40.7095238 265.215437,40.6184307 C264.825038,40.5273376 264.473678,40.3776846 264.161359,40.1694718 C263.84904,39.9612589 263.59528,39.7074995 263.400081,39.4081935 C263.204881,39.1088875 263.107282,38.7380084 263.107282,38.2955561 C263.107282,37.6188643 263.354534,37.0918255 263.84904,36.7144397 C264.343545,36.3370539 264.948664,36.0507612 265.664396,35.8555617 C266.380127,35.6603621 267.141406,35.5367357 267.94823,35.4846825 C268.755055,35.4326293 269.4838,35.4066027 270.134465,35.4066027 L270.134465,35.4066027 L271.110463,35.4066027 L271.110463,36.4606803 C271.110463,37.7880372 270.726571,38.8356082 269.958786,39.6033931 C269.191001,40.371178 268.000284,40.7550704 266.386634,40.7550704 Z M285.125791,43.8001834 L285.125791,33.5717269 C285.125791,32.9470884 285.203871,32.3484764 285.36003,31.7758911 C285.51619,31.2033057 285.76995,30.6957869 286.121309,30.2533346 C286.472668,29.8108822 286.91512,29.459523 287.448666,29.199257 C287.982211,28.9389909 288.639383,28.8088579 289.420181,28.8088579 C290.565352,28.8088579 291.38519,29.1537104 291.879695,29.8434155 C292.374201,30.5331206 292.621454,31.4635718 292.621454,32.6347691 L292.621454,32.6347691 L292.621454,43.8001834 L297.306243,43.8001834 L297.306243,33.6498067 C297.306243,33.0511948 297.377816,32.4590895 297.520962,31.8734908 C297.664109,31.2878922 297.898348,30.76736 298.223681,30.3118944 C298.549013,29.8564288 298.965439,29.4920563 299.472958,29.2187769 C299.980477,28.9454976 300.598609,28.8088579 301.327354,28.8088579 C302.030072,28.8088579 302.602657,28.9259776 303.04511,29.1602171 C303.487562,29.3944565 303.838921,29.7132825 304.099187,30.1166949 C304.359453,30.5201073 304.54164,30.9885862 304.645746,31.5221316 C304.749853,32.0556771 304.801906,32.6087425 304.801906,33.1813278 L304.801906,33.1813278 L304.801906,43.8001834 L309.486695,43.8001834 L309.486695,32.6347691 C309.486695,31.515625 309.369575,30.4680541 309.135336,29.4920563 C308.901096,28.5160585 308.517204,27.6636872 307.983658,26.9349422 C307.450113,26.2061972 306.753901,25.6336118 305.895023,25.2171861 C305.036145,24.8007604 303.982068,24.5925476 302.732791,24.5925476 C301.327354,24.5925476 300.117117,24.8723336 299.102079,25.4319056 C298.087041,25.9914777 297.241176,26.8698757 296.564485,28.0670996 C295.6015,25.7507316 293.649505,24.5925476 290.708498,24.5925476 C289.146902,24.5925476 287.904131,24.9374001 286.980187,25.6271052 C286.056242,26.3168103 285.386057,27.1041151 284.969631,27.9890198 L284.969631,27.9890198 L284.891552,27.9890198 L284.891552,25.0610265 L280.441002,25.0610265 L280.441002,43.8001834 L285.125791,43.8001834 Z M319.285712,52.7012829 L319.285712,41.4187489 L319.402832,41.4187489 C319.637072,41.7310682 319.936378,42.0498941 320.30075,42.3752267 C320.665123,42.7005593 321.107575,43.0063719 321.628107,43.2926646 C322.148639,43.5789573 322.747251,43.8131967 323.423943,43.995383 C324.100635,44.1775692 324.881433,44.2686623 325.766338,44.2686623 C327.093695,44.2686623 328.316945,44.0149029 329.436089,43.5073841 C330.555233,42.9998652 331.511711,42.3036535 332.305523,41.4187489 C333.099334,40.5338443 333.717466,39.49278 334.159918,38.2955561 C334.602371,37.0983322 334.823597,35.8100151 334.823597,34.430605 C334.823597,33.0511948 334.615384,31.7628778 334.198958,30.5656538 C333.782532,29.3684299 333.170907,28.3273656 332.364082,27.442461 C331.557258,26.5575564 330.58126,25.8613447 329.436089,25.3538258 C328.290918,24.846307 327.002601,24.5925476 325.571138,24.5925476 C324.243781,24.5925476 323.007517,24.8528136 321.862347,25.3733458 C320.717176,25.8938779 319.806245,26.7267293 319.129553,27.8719 L319.129553,27.8719 L319.051473,27.8719 L319.051473,25.0610265 L314.600923,25.0610265 L314.600923,52.7012829 L319.285712,52.7012829 Z M324.63418,40.052352 C323.775302,40.052352 323.007517,39.8961924 322.330825,39.5838731 C321.654134,39.2715538 321.075042,38.8551281 320.593549,38.334596 C320.112057,37.8140638 319.747685,37.2154519 319.500432,36.5387601 C319.253179,35.8620683 319.129553,35.1593499 319.129553,34.430605 C319.129553,33.70186 319.253179,32.9991416 319.500432,32.3224498 C319.747685,31.645758 320.112057,31.0471461 320.593549,30.5266139 C321.075042,30.0060818 321.654134,29.5896561 322.330825,29.2773368 C323.007517,28.9650175 323.775302,28.8088579 324.63418,28.8088579 C325.493058,28.8088579 326.260843,28.9650175 326.937535,29.2773368 C327.614227,29.5896561 328.193319,30.0060818 328.674811,30.5266139 C329.156303,31.0471461 329.520676,31.645758 329.767928,32.3224498 C330.015181,32.9991416 330.138808,33.70186 330.138808,34.430605 C330.138808,35.1593499 330.015181,35.8620683 329.767928,36.5387601 C329.520676,37.2154519 329.156303,37.8140638 328.674811,38.334596 C328.193319,38.8551281 327.614227,39.2715538 326.937535,39.5838731 C326.260843,39.8961924 325.493058,40.052352 324.63418,40.052352 Z"
    id="cloudcamp" fill="#101727" fill-rule="nonzero"></path>
</svg>